<?xml version="1.0" encoding="UTF-8"?>
<svg width="20px" height="20px" viewBox="0 0 20 20" version="1.1" xmlns="http://www.w3.org/2000/svg" xmlns:xlink="http://www.w3.org/1999/xlink">
    <g id="doc-type-default" stroke="none" stroke-width="1" fill="none" fill-rule="evenodd">
        <g id="编组" transform="translate(2.000000, 0.500000)">
            <path d="M3.5,1 L12.5,1 C13.8807119,1 15,2.11928813 15,3.5 L15,15.5 C15,16.8807119 13.8807119,18 12.5,18 L3.5,18 C2.11928813,18 1,16.8807119 1,15.5 L1,3.5 C1,2.11928813 2.11928813,1 3.5,1 Z" id="路径" fill="#FFFFFF" fill-rule="nonzero"></path>
            <path d="M12.5,0 L3.5,0 C1.56700338,0 0,1.56700338 0,3.5 L0,15.5 C0,17.4329966 1.56700338,19 3.5,19 L12.5,19 C14.4329966,19 16,17.4329966 16,15.5 L16,3.5 C16,1.56700338 14.4329966,0 12.5,0 Z M3.5,1 L12.5,1 C13.8807119,1 15,2.11928813 15,3.5 L15,15.5 C15,16.8807119 13.8807119,18 12.5,18 L3.5,18 C2.11928813,18 1,16.8807119 1,15.5 L1,3.5 C1,2.11928813 2.11928813,1 3.5,1 Z" id="矩形" fill="#303030" fill-rule="nonzero"></path>
            <path d="M4.5,4 L11.5,4 C12.0522847,4 12.5,4.44771525 12.5,5 L12.5,6.5 C12.5,7.05228475 12.0522847,7.5 11.5,7.5 L4.5,7.5 C3.94771525,7.5 3.5,7.05228475 3.5,6.5 L3.5,5 C3.5,4.44771525 3.94771525,4 4.5,4 Z" id="矩形" fill="#2F81F4"></path>
            <path d="M12,10.25 C12.2761424,10.25 12.5,10.4738576 12.5,10.75 C12.5,10.9954599 12.3231248,11.1996084 12.0898756,11.2419443 L12,11.25 L4,11.25 C3.72385763,11.25 3.5,11.0261424 3.5,10.75 C3.5,10.5045401 3.67687516,10.3003916 3.91012437,10.2580557 L4,10.25 L12,10.25 Z M9,13.25 C9.27614237,13.25 9.5,13.4738576 9.5,13.75 C9.5,13.9954599 9.32312484,14.1996084 9.08987563,14.2419443 L9,14.25 L4,14.25 C3.72385763,14.25 3.5,14.0261424 3.5,13.75 C3.5,13.5045401 3.67687516,13.3003916 3.91012437,13.2580557 L4,13.25 L9,13.25 Z" id="形状结合" fill="#BEC0BF" fill-rule="nonzero"></path>
        </g>
    </g>
</svg>